<svg width="20" height="20" viewBox="0 0 20 20" fill="none" xmlns="http://www.w3.org/2000/svg">
<path d="M0.239616 18.5775L5.81615 12.89C4.73596 11.5292 4.08558 9.8 4.08558 7.91668C4.08558 3.55168 7.56797 0 11.8478 0C16.1276 0 19.61 3.55164 19.61 7.91664C19.61 12.2816 16.1276 15.8333 11.8478 15.8333C10.0012 15.8333 8.30575 15.17 6.97148 14.0683L1.39495 19.7558C1.23562 19.9183 1.02646 20 0.817262 20C0.608066 20 0.398907 19.9183 0.239578 19.7558C-0.0798858 19.43 -0.0798855 18.9033 0.239616 18.5775ZM11.8478 14.1666C15.2272 14.1666 17.9758 11.3633 17.9758 7.91664C17.9758 4.46996 15.2272 1.66664 11.8478 1.66664C8.46833 1.66664 5.71971 4.46996 5.71971 7.91664C5.71971 11.3633 8.46837 14.1666 11.8478 14.1666Z" fill="#CCCCCC"/>
</svg>
