<?xml version="1.0" encoding="utf-8"?><svg viewBox="0 0 20 24" xmlns="http://www.w3.org/2000/svg" xmlns:xlink="http://www.w3.org/1999/xlink"><style>:root>svg{display:none}:root>svg:target{display:block}</style><svg fill="none" viewBox="0 0 14 9" id="arrow-down" xmlns="http://www.w3.org/2000/svg"><path fill-rule="evenodd" clip-rule="evenodd" d="M12.296.793l1.414 1.414-6.707 6.707L.296 2.207 1.71.793l5.293 5.293L12.296.793z" fill="#111"/></svg><svg fill="none" viewBox="0 0 14 24" id="arrow-left" xmlns="http://www.w3.org/2000/svg"><path d="M.492 13.188l10.32 10.32a1.68 1.68 0 102.377-2.377L4.057 12l9.131-9.13A1.68 1.68 0 0010.813.491L.492 10.812A1.675 1.675 0 000 12c0 .43.164.86.492 1.188z" fill="#646464"/></svg><svg fill="none" viewBox="0 0 14 24" id="arrow-right" xmlns="http://www.w3.org/2000/svg"><path d="M13.189 13.188l-10.32 10.32A1.68 1.68 0 11.492 21.13L9.623 12 .493 2.87A1.68 1.68 0 012.868.491l10.32 10.32c.328.328.492.758.492 1.188 0 .43-.164.86-.492 1.188z" fill="#646464"/></svg><svg fill="none" viewBox="0 0 20 20" id="search" xmlns="http://www.w3.org/2000/svg"><path d="M.24 18.578l5.576-5.688a7.975 7.975 0 01-1.73-4.973C4.086 3.552 7.568 0 11.848 0c4.28 0 7.762 3.552 7.762 7.917s-3.482 7.916-7.762 7.916a7.632 7.632 0 01-4.877-1.765l-5.576 5.688a.807.807 0 01-1.155 0 .844.844 0 010-1.178zm11.608-4.411c3.38 0 6.128-2.804 6.128-6.25 0-3.447-2.749-6.25-6.128-6.25-3.38 0-6.128 2.803-6.128 6.25 0 3.446 2.748 6.25 6.128 6.25z" fill="#CCC"/></svg></svg>